<svg id="Layer_1" data-name="Layer 1" xmlns="http://www.w3.org/2000/svg" viewBox="0 0 841.89 418.16"><defs><style>.cls-1{fill:#f58220;}.cls-2{fill:#fdb940;}.cls-3{fill:#fcb323;}.cls-4{fill:#2d3083;}.cls-5{fill:#fff;}</style></defs><title>JakartaEE_Logo_compatible</title><path class="cls-1" d="M548.73,273.88l151.95-.12s-75.35,23.54-112.82,36c-10.92,3.61-22,6.83-32.92,10.35-5.48,1.77-12.22-.12-10.82-9.3C545.44,302.12,548.73,273.88,548.73,273.88Z"/><path class="cls-2" d="M718,145H308.25c1,33.5-3.46,81.31-42.29,118.71H704.43a6.44,6.44,0,0,0,6.42-6.42l13.59-105.87A6.44,6.44,0,0,0,718,145Z"/><path class="cls-2" d="M291,106l-44.06,48.25c-.53,24.46-6.48,61.29-32.42,94.95l38.33,9.57C316.78,198.55,291,106,291,106Z"/><path class="cls-3" d="M246.91,154.24c.37-16.9-1.85-27.9-1.85-27.9L147.84,232.79l66.49,16.6.16-.2-44.21-11Z"/><path class="cls-1" d="M170.28,238.15l44.21,11c25.94-33.66,31.89-70.49,32.42-94.95Z"/><path class="cls-4" d="M227.5,264.53c3.85,0,7.63.18,11.34.52l-125.4-30.94S136.77,241.85,165,284C179.87,272.11,202.35,264.53,227.5,264.53Z"/><path class="cls-4" d="M363.68,186.79a15.68,15.68,0,0,1-.66,4.69,9.73,9.73,0,0,1-2,3.63,9,9,0,0,1-3.36,2.34,12.38,12.38,0,0,1-4.76.84c-.83,0-1.65,0-2.46-.13a24.79,24.79,0,0,1-2.51-.42l.39-4.17a1.36,1.36,0,0,1,.46-.88,1.62,1.62,0,0,1,1.11-.34,4.94,4.94,0,0,1,.91.11,6.22,6.22,0,0,0,1.31.12,5.27,5.27,0,0,0,1.86-.29,2.78,2.78,0,0,0,1.32-.95,4.38,4.38,0,0,0,.78-1.74,11.17,11.17,0,0,0,.27-2.66V167.16h7.35Z"/><path class="cls-4" d="M406.16,198h-5.7a2.54,2.54,0,0,1-1.55-.44,2.64,2.64,0,0,1-.89-1.11L396.14,191H384.08l-1.87,5.36a2.53,2.53,0,0,1-.86,1.07,2.42,2.42,0,0,1-1.54.48h-5.74l12.28-30.79h7.53Zm-11.69-11.77-2.94-8.43c-.22-.54-.45-1.17-.7-1.89s-.49-1.51-.74-2.36c-.21.86-.45,1.66-.7,2.39s-.47,1.37-.69,1.9l-2.92,8.39Z"/><path class="cls-4" d="M424.73,179.63h1.18a2.72,2.72,0,0,0,2.35-1l7.14-10.06a3.38,3.38,0,0,1,1.36-1.11,4.8,4.8,0,0,1,1.82-.31H445l-9.41,12.45a6.25,6.25,0,0,1-2.15,1.86,5.46,5.46,0,0,1,1.5.82,6.06,6.06,0,0,1,1.26,1.38L445.76,198h-6.57a5.59,5.59,0,0,1-1.08-.09,2.68,2.68,0,0,1-.77-.25,2.19,2.19,0,0,1-.57-.41,4.44,4.44,0,0,1-.46-.56l-7.18-10.71a2.1,2.1,0,0,0-1-.84,4.46,4.46,0,0,0-1.62-.24h-1.79V198h-7.36V167.16h7.36Z"/><path class="cls-4" d="M485.3,198h-5.7a2.54,2.54,0,0,1-1.55-.44,2.64,2.64,0,0,1-.89-1.11L475.29,191H463.23l-1.88,5.36a2.53,2.53,0,0,1-.86,1.07A2.41,2.41,0,0,1,459,198h-5.75l12.28-30.79H473Zm-11.69-11.77-2.94-8.43c-.22-.54-.45-1.17-.7-1.89s-.49-1.51-.74-2.36c-.21.86-.44,1.66-.69,2.39s-.48,1.37-.7,1.9l-2.92,8.39Z"/><path class="cls-4" d="M522.46,198H515.8a2.84,2.84,0,0,1-2.65-1.35l-5.27-8.94a2.56,2.56,0,0,0-.83-.84,2.69,2.69,0,0,0-1.3-.26h-1.88V198h-7.36V167.16h10.32a21.68,21.68,0,0,1,5.87.69,11.25,11.25,0,0,1,4,1.91,7.14,7.14,0,0,1,2.23,2.9,9.21,9.21,0,0,1,.7,3.63,9.31,9.31,0,0,1-.41,2.83,8.57,8.57,0,0,1-1.22,2.46,9.07,9.07,0,0,1-2,2,10.76,10.76,0,0,1-2.73,1.46,6.84,6.84,0,0,1,1.34.9,6.43,6.43,0,0,1,1.14,1.28Zm-15.63-16.31a8,8,0,0,0,2.56-.37,4.61,4.61,0,0,0,1.73-1,3.9,3.9,0,0,0,1-1.53,5.81,5.81,0,0,0,.31-1.89,3.94,3.94,0,0,0-1.36-3.17,6.51,6.51,0,0,0-4.22-1.14h-3v9.13Z"/><path class="cls-4" d="M556,172.83h-8.93V198h-7.36V172.83H530.8v-5.67H556Z"/><path class="cls-4" d="M593.81,198h-5.7a2.54,2.54,0,0,1-1.55-.44,2.64,2.64,0,0,1-.89-1.11L583.8,191H571.74l-1.88,5.36a2.53,2.53,0,0,1-.86,1.07,2.41,2.41,0,0,1-1.53.48h-5.75L574,167.16h7.53Zm-11.69-11.77-2.94-8.43c-.22-.54-.45-1.17-.7-1.89s-.49-1.51-.74-2.36c-.21.86-.45,1.66-.69,2.39s-.48,1.37-.7,1.9l-2.92,8.39Z"/><path class="cls-4" d="M629.71,172.66v7.18h10v5.28h-10v7.33h13V198H622.31V167.16h20.42v5.5Z"/><path class="cls-4" d="M663.37,172.66v7.18h10v5.28h-10v7.33h13V198H656V167.16h20.42v5.5Z"/><path class="cls-5" d="M362.81,232.35a1.42,1.42,0,0,1,.45.08,1.26,1.26,0,0,1,.43.29l2.49,2.54a10.31,10.31,0,0,1-4.1,3.13,14.59,14.59,0,0,1-5.83,1.06,14.23,14.23,0,0,1-5.53-1,11.89,11.89,0,0,1-6.76-7.08,15.22,15.22,0,0,1-.91-5.35,14.33,14.33,0,0,1,1-5.4,12.29,12.29,0,0,1,7.05-7,15.51,15.51,0,0,1,8.36-.73,13.69,13.69,0,0,1,2.52.72,11,11,0,0,1,2.16,1.11,11.21,11.21,0,0,1,1.74,1.4l-2.11,2.76a2.74,2.74,0,0,1-.49.47,1.34,1.34,0,0,1-.78.2,1.38,1.38,0,0,1-.63-.14,6.85,6.85,0,0,1-.63-.35l-.74-.45a4.67,4.67,0,0,0-1-.45,8,8,0,0,0-1.28-.36,9.56,9.56,0,0,0-1.72-.14,7,7,0,0,0-2.85.56,6.23,6.23,0,0,0-2.24,1.63,7.64,7.64,0,0,0-1.45,2.64,11.46,11.46,0,0,0-.51,3.56,10.44,10.44,0,0,0,.57,3.59,7.91,7.91,0,0,0,1.54,2.65,6.55,6.55,0,0,0,2.28,1.63,7.06,7.06,0,0,0,2.79.56,14.75,14.75,0,0,0,1.56-.08,8.55,8.55,0,0,0,1.32-.27,5.75,5.75,0,0,0,1.16-.51,7.93,7.93,0,0,0,1.09-.8,2.41,2.41,0,0,1,.48-.3A1.32,1.32,0,0,1,362.81,232.35Z"/><path class="cls-5" d="M406.06,226a13.73,13.73,0,0,1-1,5.31,12.71,12.71,0,0,1-2.85,4.26,13.24,13.24,0,0,1-4.44,2.85,16.62,16.62,0,0,1-11.52,0,13.18,13.18,0,0,1-4.45-2.85,12.61,12.61,0,0,1-2.87-4.26,14.46,14.46,0,0,1,0-10.62,12.57,12.57,0,0,1,2.87-4.25,13.16,13.16,0,0,1,4.45-2.84,15.71,15.71,0,0,1,5.77-1,15.41,15.41,0,0,1,5.75,1,13.37,13.37,0,0,1,4.44,2.84,12.81,12.81,0,0,1,2.85,4.26A13.66,13.66,0,0,1,406.06,226Zm-6.44,0a11,11,0,0,0-.52-3.51,7.41,7.41,0,0,0-1.5-2.64,6.43,6.43,0,0,0-2.39-1.66,8.31,8.31,0,0,0-3.21-.58,8.49,8.49,0,0,0-3.25.58,6.39,6.39,0,0,0-2.4,1.66,7.41,7.41,0,0,0-1.5,2.64,12.17,12.17,0,0,0,0,7,7.41,7.41,0,0,0,1.5,2.64,6.5,6.5,0,0,0,2.4,1.66,8.89,8.89,0,0,0,3.25.56,8.71,8.71,0,0,0,3.21-.56,6.55,6.55,0,0,0,2.39-1.66,7.41,7.41,0,0,0,1.5-2.64A11.06,11.06,0,0,0,399.62,226Z"/><path class="cls-5" d="M451.38,212.86v26.3h-5.55V224c0-.35,0-.72,0-1.13s.06-.83.11-1.25l-7.2,13.52a2.46,2.46,0,0,1-.9,1,2.64,2.64,0,0,1-1.3.32h-.85a2.66,2.66,0,0,1-1.3-.32,2.46,2.46,0,0,1-.9-1l-7.19-13.55.09,1.27c0,.41,0,.79,0,1.14v15.13h-5.55v-26.3h4.8l.72,0a1.85,1.85,0,0,1,.55.11,1.18,1.18,0,0,1,.43.28,2,2,0,0,1,.39.53l7,13.34c.25.46.48.93.72,1.42s.45,1,.66,1.52c.21-.53.43-1.05.66-1.55s.47-1,.73-1.45l7-13.28a2,2,0,0,1,.38-.53,1.18,1.18,0,0,1,.43-.28,1.85,1.85,0,0,1,.55-.11l.72,0Z"/><path class="cls-5" d="M477.34,212.86a16.19,16.19,0,0,1,4.92.66,9.31,9.31,0,0,1,3.38,1.82,7.1,7.1,0,0,1,2,2.72,9,9,0,0,1,.63,3.39,9.78,9.78,0,0,1-.65,3.61,7.29,7.29,0,0,1-2,2.82,9.51,9.51,0,0,1-3.4,1.83,16,16,0,0,1-4.86.66h-3.27v8.79h-6.29v-26.3Zm0,12.91a4.66,4.66,0,0,0,3.53-1.14,4.44,4.44,0,0,0,1.08-3.18,4.55,4.55,0,0,0-.28-1.64,3.21,3.21,0,0,0-.84-1.27,3.78,3.78,0,0,0-1.43-.82,6.36,6.36,0,0,0-2.06-.29h-3.27v8.34Z"/><path class="cls-5" d="M525,239.16h-4.88a2.17,2.17,0,0,1-1.32-.37,2.36,2.36,0,0,1-.76-.95l-1.6-4.58h-10.3l-1.6,4.58a2.17,2.17,0,0,1-.74.91,2.09,2.09,0,0,1-1.31.41h-4.91l10.49-26.3h6.44Zm-10-10-2.51-7.21c-.19-.45-.39-1-.6-1.61s-.42-1.29-.63-2c-.18.73-.38,1.41-.59,2s-.41,1.16-.6,1.62l-2.49,7.17Z"/><path class="cls-5" d="M555.13,217.7h-7.62v21.46h-6.29V217.7H533.6v-4.84h21.53Z"/><path class="cls-5" d="M575.79,239.16h-6.32v-26.3h6.32Z"/><path class="cls-5" d="M602.17,212.86a19.38,19.38,0,0,1,4.78.51,9.16,9.16,0,0,1,3.21,1.42A5.42,5.42,0,0,1,612,217a7.34,7.34,0,0,1,.56,2.94,5.75,5.75,0,0,1-.25,1.71,4.93,4.93,0,0,1-.82,1.53,6.12,6.12,0,0,1-1.44,1.31,8.93,8.93,0,0,1-2.1,1,7.5,7.5,0,0,1,4,2,5.19,5.19,0,0,1,1.29,3.65,7.44,7.44,0,0,1-.67,3.12,7.3,7.3,0,0,1-2,2.52,9.46,9.46,0,0,1-3.19,1.67,14.09,14.09,0,0,1-4.34.61H592.2v-26.3Zm-3.69,4.57v6.49h3.28a10.83,10.83,0,0,0,1.88-.14,4,4,0,0,0,1.42-.5,2.33,2.33,0,0,0,.89-1,3.55,3.55,0,0,0,.31-1.59,4.41,4.41,0,0,0-.24-1.56,2.27,2.27,0,0,0-.75-1,3.21,3.21,0,0,0-1.27-.54,9,9,0,0,0-1.83-.16Zm4.43,17.13a5.61,5.61,0,0,0,2-.31,3.36,3.36,0,0,0,1.24-.79,2.76,2.76,0,0,0,.61-1.11,4.74,4.74,0,0,0,.16-1.24,4,4,0,0,0-.19-1.3,2.19,2.19,0,0,0-.67-1,3.39,3.39,0,0,0-1.25-.61,7.74,7.74,0,0,0-2-.22h-4.39v6.56Z"/><path class="cls-5" d="M644.59,234.29v4.87H628.26v-26.3h6.29v21.43Z"/><path class="cls-5" d="M665.27,217.55v6.14h8.52v4.51h-8.52v6.27h11.12v4.69H659v-26.3h17.44v4.69Z"/></svg>